<svg width="143" height="17" viewBox="0 0 143 17" fill="none" xmlns="http://www.w3.org/2000/svg">
<path d="M1.152 4.392H3.648V13H1.152V4.392ZM2.4 3.192C1.94133 3.192 1.568 3.05867 1.28 2.792C0.992 2.52533 0.848 2.19467 0.848 1.8C0.848 1.40533 0.992 1.07467 1.28 0.808C1.568 0.541333 1.94133 0.407999 2.4 0.407999C2.85867 0.407999 3.232 0.535999 3.52 0.792C3.808 1.048 3.952 1.368 3.952 1.752C3.952 2.168 3.808 2.51467 3.52 2.792C3.232 3.05867 2.85867 3.192 2.4 3.192ZM11.1965 4.264C12.2632 4.264 13.1218 4.584 13.7725 5.224C14.4338 5.864 14.7645 6.81333 14.7645 8.072V13H12.2685V8.456C12.2685 7.77333 12.1192 7.26667 11.8205 6.936C11.5218 6.59467 11.0898 6.424 10.5245 6.424C9.89517 6.424 9.39383 6.62133 9.0205 7.016C8.64717 7.4 8.4605 7.976 8.4605 8.744V13H5.9645V4.392H8.3485V5.4C8.67917 5.03733 9.08983 4.76 9.5805 4.568C10.0712 4.36533 10.6098 4.264 11.1965 4.264ZM19.763 4.584H21.971V6.504H19.827V13H17.331V6.504H16.003V4.584H17.331V4.2C17.331 3.21867 17.619 2.44 18.195 1.864C18.7817 1.288 19.603 0.999999 20.659 0.999999C21.0323 0.999999 21.3843 1.04267 21.715 1.128C22.0563 1.20267 22.339 1.31467 22.563 1.464L21.907 3.272C21.619 3.06933 21.283 2.968 20.899 2.968C20.1417 2.968 19.763 3.384 19.763 4.216V4.584ZM27.2011 13.128C26.2945 13.128 25.4785 12.9413 24.7531 12.568C24.0385 12.184 23.4785 11.656 23.0731 10.984C22.6678 10.312 22.4651 9.54933 22.4651 8.696C22.4651 7.84267 22.6678 7.08 23.0731 6.408C23.4785 5.736 24.0385 5.21333 24.7531 4.84C25.4785 4.456 26.2945 4.264 27.2011 4.264C28.1078 4.264 28.9185 4.456 29.6331 4.84C30.3478 5.21333 30.9078 5.736 31.3131 6.408C31.7185 7.08 31.9211 7.84267 31.9211 8.696C31.9211 9.54933 31.7185 10.312 31.3131 10.984C30.9078 11.656 30.3478 12.184 29.6331 12.568C28.9185 12.9413 28.1078 13.128 27.2011 13.128ZM27.2011 11.08C27.8411 11.08 28.3638 10.8667 28.7691 10.44C29.1851 10.0027 29.3931 9.42133 29.3931 8.696C29.3931 7.97067 29.1851 7.39467 28.7691 6.968C28.3638 6.53067 27.8411 6.312 27.2011 6.312C26.5611 6.312 26.0331 6.53067 25.6171 6.968C25.2011 7.39467 24.9931 7.97067 24.9931 8.696C24.9931 9.42133 25.2011 10.0027 25.6171 10.44C26.0331 10.8667 26.5611 11.08 27.2011 11.08ZM40.8055 1.64C42.2775 1.64 43.5842 1.944 44.7255 2.552C45.8775 3.14933 46.7735 3.976 47.4135 5.032C48.0535 6.088 48.3735 7.28267 48.3735 8.616C48.3735 9.55467 48.2348 10.3653 47.9575 11.048C47.6908 11.72 47.3122 12.232 46.8215 12.584C46.3308 12.936 45.7548 13.112 45.0935 13.112C44.5495 13.112 44.0908 12.9947 43.7175 12.76C43.3442 12.5253 43.0722 12.1787 42.9015 11.72C42.3255 12.648 41.4135 13.112 40.1655 13.112C39.4828 13.112 38.8588 12.9413 38.2935 12.6C37.7282 12.2587 37.2802 11.784 36.9495 11.176C36.6295 10.5573 36.4695 9.85333 36.4695 9.064C36.4695 8.28533 36.6295 7.592 36.9495 6.984C37.2802 6.36533 37.7228 5.88533 38.2775 5.544C38.8428 5.20267 39.4722 5.032 40.1655 5.032C41.2215 5.032 42.0428 5.384 42.6295 6.088V5.144H44.8055V10.328C44.8055 11.0107 45.0615 11.352 45.5735 11.352C45.9468 11.352 46.2348 11.128 46.4375 10.68C46.6508 10.232 46.7575 9.55467 46.7575 8.648C46.7575 7.57067 46.5068 6.62133 46.0055 5.8C45.5148 4.968 44.8162 4.32267 43.9095 3.864C43.0135 3.39467 41.9788 3.16 40.8055 3.16C39.6322 3.16 38.5922 3.41067 37.6855 3.912C36.7895 4.40267 36.0908 5.08533 35.5895 5.96C35.0988 6.83467 34.8535 7.82667 34.8535 8.936C34.8535 10.0667 35.0988 11.0747 35.5895 11.96C36.0802 12.8347 36.7682 13.5173 37.6535 14.008C38.5495 14.5093 39.5788 14.76 40.7415 14.76C41.8935 14.76 42.9442 14.5253 43.8935 14.056L44.4055 15.528C43.9255 15.7733 43.3548 15.96 42.6935 16.088C42.0428 16.2267 41.3922 16.296 40.7415 16.296C39.2268 16.296 37.8882 15.976 36.7255 15.336C35.5628 14.7067 34.6615 13.832 34.0215 12.712C33.3815 11.592 33.0615 10.3333 33.0615 8.936C33.0615 7.54933 33.3815 6.30133 34.0215 5.192C34.6722 4.08267 35.5842 3.21333 36.7575 2.584C37.9308 1.95467 39.2802 1.64 40.8055 1.64ZM40.6615 11.272C41.2482 11.272 41.7282 11.08 42.1015 10.696C42.4748 10.3013 42.6615 9.75733 42.6615 9.064C42.6615 8.38133 42.4748 7.848 42.1015 7.464C41.7282 7.08 41.2482 6.888 40.6615 6.888C40.0642 6.888 39.5842 7.08533 39.2215 7.48C38.8588 7.864 38.6775 8.392 38.6775 9.064C38.6775 9.74667 38.8588 10.2853 39.2215 10.68C39.5842 11.0747 40.0642 11.272 40.6615 11.272ZM52.888 4.584H55.096V6.504H52.952V13H50.456V6.504H49.128V4.584H50.456V4.2C50.456 3.21867 50.744 2.44 51.32 1.864C51.9067 1.288 52.728 0.999999 53.784 0.999999C54.1573 0.999999 54.5093 1.04267 54.84 1.128C55.1813 1.20267 55.464 1.31467 55.688 1.464L55.032 3.272C54.744 3.06933 54.408 2.968 54.024 2.968C53.2667 2.968 52.888 3.384 52.888 4.216V4.584ZM60.0048 5.528C60.3034 5.112 60.7034 4.79733 61.2048 4.584C61.7168 4.37067 62.3034 4.264 62.9648 4.264V6.568C62.6874 6.54667 62.5008 6.536 62.4048 6.536C61.6901 6.536 61.1301 6.73867 60.7248 7.144C60.3194 7.53867 60.1168 8.136 60.1168 8.936V13H57.6208V4.392H60.0048V5.528ZM72.8028 8.728C72.8028 8.76 72.7868 8.984 72.7548 9.4H66.2428C66.3601 9.93333 66.6374 10.3547 67.0748 10.664C67.5121 10.9733 68.0561 11.128 68.7068 11.128C69.1548 11.128 69.5494 11.064 69.8908 10.936C70.2428 10.7973 70.5681 10.584 70.8668 10.296L72.1948 11.736C71.3841 12.664 70.2001 13.128 68.6428 13.128C67.6721 13.128 66.8134 12.9413 66.0668 12.568C65.3201 12.184 64.7441 11.656 64.3388 10.984C63.9334 10.312 63.7308 9.54933 63.7308 8.696C63.7308 7.85333 63.9281 7.096 64.3228 6.424C64.7281 5.74133 65.2774 5.21333 65.9708 4.84C66.6748 4.456 67.4588 4.264 68.3228 4.264C69.1654 4.264 69.9281 4.44533 70.6108 4.808C71.2934 5.17067 71.8268 5.69333 72.2108 6.376C72.6054 7.048 72.8028 7.832 72.8028 8.728ZM68.3388 6.152C67.7734 6.152 67.2988 6.312 66.9148 6.632C66.5308 6.952 66.2961 7.38933 66.2108 7.944H70.4508C70.3654 7.4 70.1308 6.968 69.7468 6.648C69.3628 6.31733 68.8934 6.152 68.3388 6.152ZM82.8965 8.728C82.8965 8.76 82.8805 8.984 82.8485 9.4H76.3365C76.4538 9.93333 76.7312 10.3547 77.1685 10.664C77.6058 10.9733 78.1498 11.128 78.8005 11.128C79.2485 11.128 79.6432 11.064 79.9845 10.936C80.3365 10.7973 80.6618 10.584 80.9605 10.296L82.2885 11.736C81.4778 12.664 80.2938 13.128 78.7365 13.128C77.7658 13.128 76.9072 12.9413 76.1605 12.568C75.4138 12.184 74.8378 11.656 74.4325 10.984C74.0272 10.312 73.8245 9.54933 73.8245 8.696C73.8245 7.85333 74.0218 7.096 74.4165 6.424C74.8218 5.74133 75.3712 5.21333 76.0645 4.84C76.7685 4.456 77.5525 4.264 78.4165 4.264C79.2592 4.264 80.0218 4.44533 80.7045 4.808C81.3872 5.17067 81.9205 5.69333 82.3045 6.376C82.6992 7.048 82.8965 7.832 82.8965 8.728ZM78.4325 6.152C77.8672 6.152 77.3925 6.312 77.0085 6.632C76.6245 6.952 76.3898 7.38933 76.3045 7.944H80.5445C80.4592 7.4 80.2245 6.968 79.8405 6.648C79.4565 6.31733 78.9872 6.152 78.4325 6.152ZM87.2943 4.584H89.5023V6.504H87.3583V13H84.8623V6.504H83.5343V4.584H84.8623V4.2C84.8623 3.21867 85.1503 2.44 85.7263 1.864C86.3129 1.288 87.1343 0.999999 88.1903 0.999999C88.5636 0.999999 88.9156 1.04267 89.2463 1.128C89.5876 1.20267 89.8703 1.31467 90.0943 1.464L89.4383 3.272C89.1503 3.06933 88.8143 2.968 88.4303 2.968C87.6729 2.968 87.2943 3.384 87.2943 4.216V4.584ZM92.0303 4.392H94.5263V13H92.0303V4.392ZM93.2783 3.192C92.8196 3.192 92.4463 3.05867 92.1583 2.792C91.8703 2.52533 91.7263 2.19467 91.7263 1.8C91.7263 1.40533 91.8703 1.07467 92.1583 0.808C92.4463 0.541333 92.8196 0.407999 93.2783 0.407999C93.7369 0.407999 94.1103 0.535999 94.3983 0.792C94.6863 1.048 94.8303 1.368 94.8303 1.752C94.8303 2.168 94.6863 2.51467 94.3983 2.792C94.1103 3.05867 93.7369 3.192 93.2783 3.192ZM102.392 12.584C102.146 12.7653 101.842 12.904 101.48 13C101.128 13.0853 100.754 13.128 100.36 13.128C99.3355 13.128 98.5408 12.8667 97.9755 12.344C97.4208 11.8213 97.1435 11.0533 97.1435 10.04V6.504H95.8155V4.584H97.1435V2.488H99.6395V4.584H101.784V6.504H99.6395V10.008C99.6395 10.3707 99.7302 10.6533 99.9115 10.856C100.104 11.048 100.37 11.144 100.712 11.144C101.106 11.144 101.442 11.0373 101.72 10.824L102.392 12.584ZM104.893 13.128C104.456 13.128 104.088 12.9787 103.789 12.68C103.49 12.3813 103.341 12.008 103.341 11.56C103.341 11.1013 103.49 10.7333 103.789 10.456C104.088 10.168 104.456 10.024 104.893 10.024C105.33 10.024 105.698 10.168 105.997 10.456C106.296 10.7333 106.445 11.1013 106.445 11.56C106.445 12.008 106.296 12.3813 105.997 12.68C105.698 12.9787 105.33 13.128 104.893 13.128ZM112.187 13.128C111.27 13.128 110.443 12.9413 109.707 12.568C108.982 12.184 108.411 11.656 107.995 10.984C107.59 10.312 107.387 9.54933 107.387 8.696C107.387 7.84267 107.59 7.08 107.995 6.408C108.411 5.736 108.982 5.21333 109.707 4.84C110.443 4.456 111.27 4.264 112.187 4.264C113.094 4.264 113.883 4.456 114.555 4.84C115.238 5.21333 115.734 5.752 116.043 6.456L114.107 7.496C113.659 6.70667 113.014 6.312 112.171 6.312C111.52 6.312 110.982 6.52533 110.555 6.952C110.128 7.37867 109.915 7.96 109.915 8.696C109.915 9.432 110.128 10.0133 110.555 10.44C110.982 10.8667 111.52 11.08 112.171 11.08C113.024 11.08 113.67 10.6853 114.107 9.896L116.043 10.952C115.734 11.6347 115.238 12.168 114.555 12.552C113.883 12.936 113.094 13.128 112.187 13.128ZM121.467 13.128C120.56 13.128 119.744 12.9413 119.019 12.568C118.304 12.184 117.744 11.656 117.339 10.984C116.933 10.312 116.731 9.54933 116.731 8.696C116.731 7.84267 116.933 7.08 117.339 6.408C117.744 5.736 118.304 5.21333 119.019 4.84C119.744 4.456 120.56 4.264 121.467 4.264C122.373 4.264 123.184 4.456 123.899 4.84C124.613 5.21333 125.173 5.736 125.579 6.408C125.984 7.08 126.187 7.84267 126.187 8.696C126.187 9.54933 125.984 10.312 125.579 10.984C125.173 11.656 124.613 12.184 123.899 12.568C123.184 12.9413 122.373 13.128 121.467 13.128ZM121.467 11.08C122.107 11.08 122.629 10.8667 123.035 10.44C123.451 10.0027 123.659 9.42133 123.659 8.696C123.659 7.97067 123.451 7.39467 123.035 6.968C122.629 6.53067 122.107 6.312 121.467 6.312C120.827 6.312 120.299 6.53067 119.883 6.968C119.467 7.39467 119.259 7.97067 119.259 8.696C119.259 9.42133 119.467 10.0027 119.883 10.44C120.299 10.8667 120.827 11.08 121.467 11.08ZM138.879 4.264C139.956 4.264 140.81 4.584 141.439 5.224C142.079 5.85333 142.399 6.80267 142.399 8.072V13H139.903V8.456C139.903 7.77333 139.759 7.26667 139.471 6.936C139.194 6.59467 138.794 6.424 138.271 6.424C137.684 6.424 137.22 6.616 136.879 7C136.538 7.37333 136.367 7.93333 136.367 8.68V13H133.871V8.456C133.871 7.10133 133.327 6.424 132.239 6.424C131.663 6.424 131.204 6.616 130.863 7C130.522 7.37333 130.351 7.93333 130.351 8.68V13H127.855V4.392H130.239V5.384C130.559 5.02133 130.948 4.744 131.407 4.552C131.876 4.36 132.388 4.264 132.943 4.264C133.551 4.264 134.1 4.38667 134.591 4.632C135.082 4.86667 135.476 5.21333 135.775 5.672C136.127 5.224 136.57 4.87733 137.103 4.632C137.647 4.38667 138.239 4.264 138.879 4.264Z" fill="#2B3541"/>
</svg>
